<svg width="123" height="23" viewBox="0 0 123 23" fill="none" xmlns="http://www.w3.org/2000/svg">
<g clip-path="url(#clip0_198_1609)">
<path d="M10.8773 0.246431C11.0448 0.210943 11.1833 0.311491 11.3354 0.346979C11.7664 0.445556 12.1744 0.640739 12.5651 0.812263C13.0328 1.0173 13.5004 1.30121 13.9084 1.65214C14.1875 1.89267 14.4839 2.11151 14.7649 2.35401C14.8592 2.43681 14.8649 2.47821 14.7841 2.55905C14.2933 3.04996 13.8007 3.5389 13.3176 4.0377C13.2021 4.15797 13.1386 4.07122 13.0597 4.00813C12.6017 3.63945 12.1417 3.27472 11.6086 3.01842C11.064 2.7562 10.4828 2.63791 9.89196 2.54722C9.48204 2.48413 9.07019 2.42104 8.65642 2.45456C7.58254 2.5413 6.53752 2.7286 5.60413 3.32992C4.75542 3.87604 4.02602 4.56016 3.5295 5.4375C2.87901 6.58494 2.49988 7.82306 2.58648 9.1854C2.7212 11.2713 3.60263 12.9294 5.23655 14.1852C5.55024 14.4277 5.89473 14.6209 6.2527 14.7806C7.24382 15.2242 8.28499 15.3938 9.36657 15.3287C9.95547 15.2932 10.5232 15.1789 11.0755 14.9738C11.089 14.96 11.1025 14.9462 11.1179 14.9324C11.4816 14.8398 11.8338 14.7037 12.1533 14.5125C13.4081 13.7574 14.2125 12.6573 14.5166 11.1964C14.5455 11.0544 14.5782 10.9144 14.609 10.7725C14.6648 10.5083 14.6378 10.4787 14.3722 10.4787C12.9154 10.4787 11.4585 10.4827 10.0017 10.4827C9.69759 10.4827 9.39351 10.4728 9.08944 10.4768C8.95857 10.4768 8.91238 10.4432 8.91238 10.2993C8.91623 9.61519 8.91046 8.93107 8.89699 8.24694C8.89506 8.09514 8.9528 8.03993 9.08944 8.03796C9.13755 8.03796 9.18567 8.03402 9.23378 8.03402C11.6991 8.03402 14.1644 8.03796 16.6297 8.03402C16.8395 8.03402 16.9222 8.06951 16.9415 8.32186C16.9761 8.797 17.0416 9.27017 17.0242 9.74926C16.9646 11.3344 16.6778 12.8623 15.7925 14.2069C15.0112 15.3938 13.9777 16.2948 12.7172 16.9336C12.0089 17.2924 11.2661 17.523 10.4924 17.6532C10.096 17.7202 9.68412 17.6965 9.28766 17.7616C8.62178 17.872 7.96359 17.7951 7.31118 17.7005C6.7396 17.6177 6.17764 17.4501 5.64262 17.2155C4.47059 16.7029 3.40055 16.0345 2.51335 15.0902C1.45486 13.9664 0.688904 12.6731 0.311697 11.151C0.15966 10.5398 0.0345663 9.9267 -7.50477e-05 9.29778C-0.00584861 9.18145 0.0268682 9.06119 0.0153211 8.94487C-0.0635842 8.1464 0.155811 7.3913 0.334792 6.63028C0.386754 6.40947 0.452187 6.19063 0.511848 5.97179C0.769733 5.89884 0.84479 5.70957 0.746639 5.38624C0.981431 4.79083 1.31437 4.24472 1.68196 3.73212C2.00528 3.28063 2.38248 2.86661 2.79048 2.4861C3.12727 2.17065 3.50255 1.90844 3.86051 1.62454C4.37821 1.21249 4.95172 0.924641 5.54447 0.68017C6.08526 0.455414 6.6299 0.216857 7.22458 0.15574C7.22843 0.228687 7.26307 0.28389 7.33428 0.291776C7.62873 0.325292 7.89046 0.254317 8.08869 0.0137887C8.60061 0.00984567 9.11253 -0.0256421 9.62638 0.0216749C9.77649 0.197142 9.99011 0.276004 10.1922 0.281918C10.4174 0.289804 10.6598 0.402182 10.8773 0.244459V0.246431Z" fill="#FBFBFB"/>
<path d="M49.9297 20.5099C50.4974 20.3186 50.9035 19.9184 51.2749 19.463C51.4847 19.2047 51.5828 18.8912 51.6425 18.5778C51.756 17.9843 51.8311 17.383 51.8003 16.7758C51.7965 16.7028 51.8561 16.5904 51.758 16.5609C51.6829 16.5392 51.6252 16.6378 51.5713 16.6949C51.1267 17.178 50.5859 17.4934 49.9605 17.661C49.1368 17.8798 48.3169 17.8818 47.4894 17.661C46.8831 17.4993 46.327 17.2391 45.8208 16.8724C44.7604 16.1035 44.0252 15.0921 43.6365 13.8185C43.4094 13.0712 43.3247 12.3043 43.4094 11.5394C43.5114 10.6108 43.7847 9.71963 44.312 8.93101C44.8586 8.11282 45.5379 7.43461 46.4097 6.98904C47.4297 6.46856 48.4997 6.26155 49.6429 6.5001C50.4339 6.66571 51.1267 6.98904 51.681 7.59628C51.7137 7.63177 51.7368 7.68697 51.7926 7.67317C51.8734 7.65345 51.8426 7.58051 51.8426 7.53122C51.8446 7.32026 51.8465 7.10734 51.8369 6.89638C51.8292 6.7564 51.8811 6.70908 52.0158 6.71106C52.7029 6.71894 53.39 6.68543 54.0751 6.75246C54.1675 6.76232 54.1906 6.78006 54.1906 6.88061C54.1886 10.0331 54.1925 13.1856 54.1886 16.3381C54.1886 17.1563 54.1521 17.9745 54.0058 18.7808C53.9134 19.2934 53.7229 19.7765 53.5035 20.2477C52.7857 21.7874 51.5366 22.58 49.9451 22.8915C48.7538 23.1241 47.5991 22.9861 46.4963 22.4637C45.3224 21.9077 44.516 20.9732 43.9194 19.8297C43.8463 19.6877 43.8847 19.6247 44.0291 19.5556C44.2889 19.4334 44.5468 19.2875 44.8027 19.1771C45.1184 19.0411 45.4359 18.8853 45.7689 18.7907C45.9132 18.7493 45.9979 18.8163 46.0671 18.9563C46.4251 19.6621 46.9409 20.2102 47.6587 20.5434C47.7222 20.573 47.7934 20.5887 47.8608 20.6104C47.9513 20.7839 48.1302 20.8194 48.2861 20.8312C48.6114 20.8569 48.9462 20.8805 49.2638 20.8273C49.4966 20.7879 49.7449 20.7031 49.9258 20.5118L49.9297 20.5099ZM49.5448 15.5712C49.6044 15.5514 49.6641 15.5258 49.7257 15.512C50.4416 15.3405 50.9958 14.8752 51.3769 14.2995C52.1005 13.2053 52.2237 11.9908 51.7618 10.7291C51.3731 9.67034 50.7014 8.93298 49.5813 8.72006C48.7807 8.56825 47.9743 8.62542 47.3065 9.12817C46.3905 9.8182 45.8131 10.7429 45.815 11.9494C45.815 12.5922 45.8093 13.2408 46.1826 13.8145C46.3943 14.1379 46.5791 14.477 46.8658 14.7451C47.372 15.2143 47.9455 15.5337 48.6325 15.6224C48.825 15.8393 49.3061 15.8117 49.5448 15.5712Z" fill="#FBFBFB"/>
<path d="M78.0317 5.92441C78.0317 6.31477 78.0221 6.69331 78.0317 7.07185C78.1299 10.4452 78.076 13.8185 78.0856 17.1918C78.0856 17.3495 78.0452 17.4047 77.8836 17.4047C77.4044 17.4008 76.9232 17.4047 76.4421 17.4205C76.2516 17.4264 76.1977 17.3613 76.1977 17.1681C76.2015 12.393 76.1977 7.61796 76.2015 2.84092C76.2015 2.68714 76.0938 2.4959 76.2997 2.38155C76.3305 2.36381 76.3401 2.31057 76.3921 2.33226C76.7462 2.47421 77.1157 2.37169 77.4756 2.38549C77.6603 2.39338 77.8335 2.45252 78.0164 2.4545C78.1703 2.4545 78.1896 2.62799 78.2319 2.70882C78.8574 3.89175 79.5714 5.02539 80.1872 6.21225C80.6087 7.02256 81.0783 7.80329 81.5151 8.60373C81.85 9.21294 82.1887 9.82806 82.5486 10.4254C82.7757 10.8 82.9739 11.1924 83.201 11.6064C83.4531 11.2771 83.6456 10.9262 83.84 10.5812C84.7964 8.87778 85.7414 7.16648 86.6902 5.45715C87.204 4.52856 87.7198 3.60193 88.2279 2.66939C88.3318 2.48013 88.4607 2.38746 88.6801 2.39141C89.1362 2.40126 89.5923 2.39929 90.0485 2.39141C90.2332 2.38944 90.3121 2.42887 90.3121 2.64968C90.3063 7.45827 90.3121 12.2649 90.3121 17.0735C90.3121 17.4126 90.3063 17.4126 89.983 17.4126C89.5346 17.4126 89.0862 17.4047 88.6378 17.4244C88.428 17.4343 88.3934 17.3593 88.3953 17.1661C88.4011 14.9344 88.4011 12.7006 88.4415 10.4688C88.4665 9.05916 88.455 7.64951 88.4588 6.23986C88.4588 6.15311 88.4473 6.06439 88.4396 5.92835C88.2144 6.23591 88.0604 6.53361 87.8968 6.8254C86.6363 9.07099 85.3738 11.3185 84.1132 13.5641C84.0863 13.6134 84.0478 13.6607 84.0324 13.714C83.9227 14.1162 83.6629 14.195 83.2684 14.2069C82.8103 14.2207 82.5986 14.0373 82.3889 13.6529C81.3304 11.7089 80.2411 9.78469 79.1634 7.85258C78.8323 7.26111 78.5033 6.66965 78.1703 6.07819C78.1395 6.02496 78.1241 5.95792 78.0241 5.92441H78.0317Z" fill="#FBFBFB"/>
<path d="M60.278 10.262C60.6033 9.25649 61.096 8.35944 61.9043 7.66546C62.1602 7.44465 62.4027 7.20609 62.7049 7.04837C62.7222 7.03851 62.7376 7.02865 62.7549 7.01879C62.7722 7.01288 62.7915 7.00697 62.8088 6.99908C62.8223 6.98725 62.8377 6.97739 62.8511 6.96556C63.3784 6.69941 63.9327 6.5338 64.5197 6.45493C65.0701 6.38002 65.6301 6.35439 66.1594 6.47859C66.9754 6.6718 67.751 6.99119 68.4072 7.56294C69.2174 8.26875 69.7525 9.15792 70.1508 10.1476C70.3529 10.6484 70.3452 10.6523 69.8564 10.8594C68.3302 11.5021 66.8022 12.1428 65.2741 12.7856C64.4889 13.1148 63.7056 13.448 62.9185 13.7694C62.7722 13.8285 62.7857 13.9034 62.8492 14.0079C63.313 14.7512 63.8807 15.3584 64.7814 15.5221C64.8122 15.528 64.8411 15.5437 64.87 15.5536C65.1875 15.7843 65.5397 15.7922 65.9053 15.7153C65.9862 15.6975 66.0612 15.6739 66.0709 15.5713C66.194 15.5437 66.3172 15.5142 66.4404 15.4866C66.8965 15.386 67.2621 15.1238 67.5931 14.8084C67.8125 14.5994 68.0512 14.4062 68.2205 14.1459C68.2821 14.0513 68.363 14.0671 68.4245 14.1144C68.9403 14.5166 69.5369 14.7886 70.0488 15.1987C70.1932 15.315 70.1951 15.3683 70.0835 15.5161C69.4368 16.3757 68.6362 17.0382 67.649 17.4364C66.8426 17.7617 65.9996 17.88 65.1221 17.8228C63.8923 17.74 62.8261 17.2748 61.8908 16.496C61.2595 15.9716 60.8554 15.2579 60.509 14.5146C60.1202 13.6806 60.0221 12.7934 60.0529 11.8846C60.0606 11.6243 60.0683 11.3641 60.076 11.1038C60.2646 10.9264 60.3339 10.6957 60.3531 10.4453C60.3589 10.3724 60.3589 10.2975 60.278 10.258V10.262ZM65.3665 8.62166C64.2195 8.6394 63.4458 9.09483 62.8665 10.0017C62.522 10.54 62.3854 11.1531 62.3315 11.786C62.318 11.9378 62.4393 11.9831 62.5374 11.924C62.9012 11.7051 63.3149 11.6085 63.6921 11.4252C64.8218 10.8791 66.0093 10.471 67.1544 9.96231C67.4546 9.83021 67.4835 9.78487 67.2871 9.50097C67.2544 9.45365 67.2179 9.41027 67.1832 9.3669C66.7079 8.76164 66.042 8.64532 65.3646 8.62166H65.3665Z" fill="#FBFBFB"/>
<path d="M18.4581 12.0857C18.4889 9.96823 19.3549 8.31017 21.1274 7.1785C21.7895 6.75659 22.5343 6.56535 23.3118 6.44903C24.3491 6.29525 25.3344 6.4648 26.2678 6.87883C27.8151 7.56689 28.8197 8.78136 29.2874 10.4296C29.4529 11.0131 29.5414 11.6263 29.5106 12.2375C29.4779 12.9058 29.426 13.584 29.17 14.209C28.381 16.1392 27.0107 17.3832 24.9553 17.744C23.0866 18.0713 21.4431 17.5587 20.0786 16.216C19.2145 15.3663 18.7199 14.3036 18.5216 13.103C18.4677 12.7698 18.4389 12.4267 18.4581 12.0837V12.0857ZM24.5184 15.5753C24.5762 15.5536 24.6339 15.5201 24.6955 15.5083C25.3749 15.39 25.8925 14.9858 26.3179 14.4771C27.0838 13.5624 27.2455 12.4701 27.0569 11.3227C26.8317 9.96429 25.8925 9.03175 24.6204 8.74193C24.1586 8.63547 23.7159 8.6473 23.2733 8.72025C22.1821 8.9036 21.0004 10.1871 20.8772 11.3385C20.8157 11.9201 20.7464 12.5155 20.9215 13.0971C21.1063 13.7063 21.3988 14.2524 21.8491 14.7019C22.3534 15.2046 22.95 15.5201 23.6524 15.6206C23.8025 15.8355 24.3164 15.8079 24.5184 15.5733V15.5753Z" fill="#FBFBFB"/>
<path d="M31.4679 9.63285C31.5853 9.33909 31.772 9.0887 31.9394 8.82452C32.1261 8.53076 32.3282 8.26066 32.5688 8.01618C33.3212 7.24925 34.2258 6.77214 35.2612 6.53556C36.641 6.22011 37.9555 6.41726 39.1891 7.09153C39.9358 7.49964 40.5247 8.10885 41.0155 8.82057C41.3908 9.36472 41.6948 9.93055 41.8238 10.5812C41.8931 10.9242 41.9142 11.2811 41.97 11.6261C42.0605 12.1821 41.9585 12.7183 41.9027 13.2565C41.8546 13.7356 41.7045 14.197 41.4908 14.6327C40.646 16.3459 39.3161 17.4047 37.4513 17.7536C36.7103 17.8916 35.9752 17.8601 35.2438 17.6925C33.4425 17.2785 32.1838 16.1823 31.4198 14.4907C31.0503 13.6706 30.9368 12.7952 30.9541 11.8962C30.9637 11.3737 31.0484 10.869 31.212 10.3761C31.3563 10.2283 31.4949 10.0705 31.5699 9.87535C31.6065 9.78071 31.5815 9.68017 31.466 9.63679L31.4679 9.63285ZM34.5472 14.8712C34.9686 15.2379 35.4247 15.5317 36.0002 15.5672C36.2042 15.7781 36.8085 15.8314 37.0221 15.6539C37.0433 15.6362 37.0452 15.5968 37.0567 15.5672C37.1414 15.4706 37.2665 15.508 37.3704 15.4765C37.9131 15.3129 38.3269 14.9501 38.733 14.5775C38.8177 14.5814 38.8369 14.5282 38.835 14.4552C39.0659 14.1634 39.2603 13.8519 39.3854 13.4931C39.778 12.3812 39.7164 11.2968 39.1602 10.2618C38.7195 9.44161 38.0652 8.86789 37.1318 8.722C36.2157 8.58005 35.3324 8.63328 34.5741 9.29572C34.0506 9.75311 33.6734 10.315 33.4714 10.9696C33.2674 11.632 33.2712 12.326 33.4155 13.014C33.5714 13.7534 33.9429 14.3547 34.5125 14.8357C34.5241 14.8476 34.5356 14.8594 34.5472 14.8693V14.8712Z" fill="#FBFBFB"/>
<path d="M103.524 14.4278C103.524 12.0403 103.524 9.65274 103.52 7.26718C103.52 7.09566 103.562 7.04045 103.734 7.0444C104.197 7.05622 104.661 7.05425 105.125 7.04637C105.267 7.0444 105.329 7.08383 105.318 7.23958C105.292 7.55305 105.364 7.87047 105.273 8.18197C105.254 8.24506 105.264 8.31604 105.331 8.3535C105.42 8.40082 105.479 8.34364 105.537 8.28252C105.814 7.98285 106.107 7.70289 106.426 7.44462C106.809 7.13706 107.24 6.9537 107.698 6.85513C108.148 6.75852 108.61 6.71515 109.076 6.73289C110.206 6.77824 111.149 7.22775 111.936 8.04002C112.434 8.5546 112.84 9.12634 113.135 9.79075C113.508 10.6385 113.626 11.5218 113.599 12.4385C113.578 13.1187 113.387 13.7575 113.17 14.3963C112.737 15.6679 111.888 16.5591 110.756 17.1801C109.363 17.9431 107.286 17.8268 105.98 16.5019C105.793 16.3126 105.612 16.1155 105.427 15.9242C105.394 15.8907 105.362 15.8414 105.308 15.8611C105.248 15.8848 105.267 15.9459 105.273 15.9873C105.354 16.6064 105.385 17.2294 105.385 17.8524C105.385 19.1063 105.383 20.3622 105.391 21.6161C105.391 21.7856 105.341 21.8231 105.187 21.8191C104.698 21.8093 104.211 21.8093 103.722 21.8191C103.568 21.8211 103.52 21.7797 103.522 21.6121C103.528 19.2167 103.526 16.8213 103.526 14.4258C103.526 14.4258 103.526 14.4258 103.524 14.4258V14.4278ZM111.774 12.1389C111.817 11.2615 111.593 10.4374 111.051 9.71583C110.643 9.17366 110.137 8.74584 109.473 8.58417C108.941 8.45405 108.397 8.41462 107.844 8.51122C106.894 8.67683 106.234 9.25252 105.777 10.0648C105.493 10.5695 105.358 11.1413 105.339 11.7406C105.31 12.6278 105.362 13.4894 105.851 14.2642C106.261 14.9108 106.763 15.4629 107.494 15.7271C108.023 15.9183 108.574 15.8808 109.12 15.798C110.05 15.6581 110.704 15.0962 111.214 14.345C111.657 13.6944 111.803 12.9492 111.774 12.1408V12.1389Z" fill="#FBFBFB"/>
<path d="M101.428 13.5445C101.461 15.0744 101.409 16.1115 101.472 17.1446C101.482 17.3003 101.44 17.3634 101.276 17.3634C100.805 17.3595 100.331 17.3634 99.8597 17.3772C99.6826 17.3811 99.6441 17.3082 99.6537 17.1446C99.6691 16.8429 99.6672 16.5413 99.6691 16.2396C99.6691 16.1785 99.7096 16.0996 99.6345 16.0641C99.5575 16.0267 99.5229 16.1134 99.4844 16.1548C99.061 16.6083 98.5818 16.9908 98.0237 17.249C96.69 17.8681 94.6904 17.876 93.3586 16.4683C92.8429 15.9242 92.5869 15.2676 92.5388 14.5224C92.5041 13.9881 92.5927 13.4755 92.7293 12.957C92.8794 12.3892 93.2913 12.0521 93.6819 11.713C94.0284 11.4133 94.4344 11.1649 94.8501 10.9717C95.1946 10.812 95.5834 10.7311 95.9741 10.6996C96.9344 10.6247 97.8851 10.668 98.8223 10.9145C99.0533 10.9756 99.2631 11.0919 99.4709 11.2082C99.621 11.291 99.6595 11.2181 99.6422 11.1038C99.5402 10.4807 99.4767 9.84196 99.0283 9.34316C98.6588 8.93308 98.2103 8.7103 97.6657 8.60187C97.0383 8.47766 96.4533 8.54863 95.8644 8.7517C95.3101 8.94097 94.8944 9.2919 94.6461 9.83605C94.5903 9.95829 94.5249 9.96026 94.419 9.91491C93.9629 9.71579 93.5087 9.51863 93.0488 9.32936C92.8967 9.26627 92.8756 9.17953 92.9545 9.04743C93.5799 8.00054 94.4075 7.16855 95.6065 6.90437C97.0845 6.57906 98.5279 6.69538 99.8058 7.64961C100.21 7.95126 100.529 8.32191 100.822 8.7379C101.216 9.29979 101.315 9.9228 101.384 10.5813C101.505 11.7346 101.394 12.89 101.428 13.5465V13.5445ZM96.3147 15.8591C97.225 15.8532 97.8755 15.6521 98.4163 15.1632C98.9397 14.688 99.4517 14.207 99.571 13.4341C99.6518 12.9136 99.6306 12.7973 99.163 12.5962C98.2912 12.2177 97.3924 12.1329 96.4533 12.2748C95.6238 12.3991 95.006 12.7874 94.6057 13.5386C94.2497 14.205 94.5095 15.1001 95.1099 15.4747C95.5449 15.7467 96.0048 15.8729 96.3166 15.8631L96.3147 15.8591Z" fill="#FBFBFB"/>
<path d="M119.278 17.6335C117.182 17.7005 115.795 16.6891 114.859 14.9246C114.782 14.7787 114.798 14.7038 114.969 14.6407C115.383 14.4889 115.796 14.3351 116.193 14.134C116.351 14.0532 116.43 14.0709 116.535 14.2621C117.188 15.4549 117.94 16.0405 119.615 15.9084C120.082 15.8709 120.487 15.7033 120.848 15.38C121.41 14.8792 121.212 13.8698 120.706 13.5346C120.225 13.2153 119.684 13.093 119.139 12.9609C118.139 12.7204 117.124 12.5449 116.245 11.9121C115.348 11.2693 114.93 10.4334 115.082 9.34709C115.169 8.72014 115.523 8.19374 116.006 7.79154C116.559 7.33414 117.182 6.99898 117.894 6.88069C118.943 6.70522 119.978 6.72099 120.968 7.19219C121.728 7.55298 122.353 8.06361 122.744 8.83646C122.915 9.17556 122.894 9.284 122.544 9.37863C122.196 9.47327 121.882 9.64676 121.543 9.75717C121.428 9.79463 121.314 9.85772 121.227 9.69211C120.666 8.60382 119.68 8.48552 118.631 8.54664C118.164 8.57424 117.715 8.69845 117.344 9.01587C117.065 9.25442 116.928 9.56396 116.945 9.93855C116.963 10.3151 117.348 10.7311 117.708 10.8198C118.085 10.9125 118.433 11.1175 118.82 11.1767C119.297 11.2496 119.753 11.4152 120.227 11.5099C120.746 11.6144 121.285 11.7622 121.712 12.0678C122.455 12.5982 123.062 13.2645 123.002 14.3035C122.988 14.548 123.013 14.7925 122.996 15.037C122.952 15.654 122.65 16.1647 122.224 16.561C121.701 17.0479 121.064 17.3634 120.358 17.5231C119.98 17.6078 119.601 17.6138 119.282 17.6335H119.278Z" fill="#FBFBFB"/>
<path d="M58.5132 1.52202C58.5151 1.59497 58.5209 1.66791 58.5209 1.74086C58.5209 6.84912 58.5209 11.9574 58.5209 17.0676C58.5209 17.5211 58.5209 17.5171 58.0802 17.5171C57.4874 17.5152 56.8947 17.5112 56.3039 17.523C56.1268 17.527 56.0633 17.4856 56.0691 17.2983C56.0825 16.7778 56.0806 16.2553 56.0806 15.7349C56.0806 10.8376 56.0787 5.94024 56.0768 1.04491C56.0768 0.971959 56.0768 0.897041 56.071 0.826065C56.0556 0.695943 56.1152 0.654541 56.2365 0.654541C56.9563 0.656513 57.678 0.654541 58.3977 0.654541C58.4266 0.654541 58.4555 0.676228 58.4843 0.688057C58.4978 0.705801 58.5113 0.723545 58.5228 0.739317C58.5209 0.968016 58.519 1.19671 58.5151 1.42541C58.4863 1.43133 58.4516 1.43724 58.4516 1.4747C58.4516 1.51216 58.4843 1.51808 58.5151 1.52399L58.5132 1.52202Z" fill="#FBFBFB"/>
<path d="M10.8774 0.246466C10.658 0.404189 10.4174 0.291811 10.1923 0.283925C9.9902 0.27801 9.77658 0.199149 9.62646 0.0236816C9.97288 0.0808563 10.3308 0.0374824 10.6715 0.14986C10.7446 0.173519 10.8293 0.163661 10.8774 0.244494V0.246466Z" fill="#FBFBFB"/>
<path d="M66.0708 15.5732C66.0611 15.6757 65.9861 15.7013 65.9053 15.7171C65.5415 15.794 65.1893 15.7861 64.8699 15.5554C65.2702 15.5613 65.6705 15.5672 66.0708 15.5732Z" fill="#FBFBFB"/>
<path d="M8.09067 0.015655C7.89052 0.256183 7.63071 0.327158 7.33626 0.293642C7.26505 0.285756 7.23041 0.230553 7.22656 0.157606C7.50754 0.0708582 7.79045 -0.0158896 8.09067 0.015655Z" fill="#FBFBFB"/>
<path d="M60.278 10.262C60.3608 10.3014 60.3588 10.3763 60.3531 10.4493C60.3338 10.6996 60.2645 10.9303 60.0759 11.1078C60.0913 10.814 60.1606 10.5321 60.278 10.262Z" fill="#FBFBFB"/>
<path d="M31.4679 9.63283C31.5814 9.67621 31.6084 9.77675 31.5718 9.87139C31.4968 10.0666 31.3582 10.2243 31.2139 10.3722C31.2331 10.1021 31.339 9.86153 31.4698 9.63086L31.4679 9.63283Z" fill="#FBFBFB"/>
<path d="M0.746754 5.38818C0.844905 5.71152 0.769849 5.89881 0.511963 5.97373C0.571623 5.77066 0.602415 5.55774 0.746754 5.38818Z" fill="#FBFBFB"/>
<path d="M58.5132 1.52192C58.4844 1.516 58.4497 1.51009 58.4497 1.47263C58.4497 1.43517 58.4844 1.42925 58.5132 1.42334C58.5132 1.45686 58.5132 1.4884 58.5132 1.52192Z" fill="#FBFBFB"/>
<path d="M62.7537 7.01863C62.7361 7.02849 62.7205 7.03835 62.7029 7.04821C62.7127 7.02652 62.7205 7.00089 62.7537 7.01863Z" fill="#FBFBFB"/>
<path d="M62.8497 6.96741C62.836 6.97924 62.8203 6.98909 62.8066 7.00092C62.8066 6.97332 62.8164 6.95361 62.8497 6.96741Z" fill="#FBFBFB"/>
<path d="M58.5215 0.739248C58.5078 0.721504 58.4942 0.703761 58.4824 0.687988C58.5137 0.691931 58.5274 0.707704 58.5215 0.739248Z" fill="#FBFBFB"/>
<path d="M11.1168 14.9325C11.1031 14.9463 11.0894 14.9601 11.0737 14.9739C11.0737 14.9443 11.0855 14.9285 11.1168 14.9325Z" fill="#FBFBFB"/>
<path d="M48.6326 15.6206C48.9386 15.6206 49.2388 15.5338 49.5448 15.5693C49.3042 15.8098 48.8231 15.8374 48.6326 15.6206Z" fill="#FBFBFB"/>
<path d="M23.6543 15.6226C23.943 15.6009 24.2278 15.5338 24.5203 15.5752C24.3183 15.8099 23.8063 15.8375 23.6543 15.6226Z" fill="#FBFBFB"/>
<path d="M35.998 15.5674C36.3502 15.5674 36.7024 15.5674 37.0546 15.5674C37.0431 15.597 37.0411 15.6364 37.02 15.6541C36.8044 15.8316 36.2001 15.7803 35.998 15.5674Z" fill="#FBFBFB"/>
<path d="M38.7329 14.5776C38.7464 14.5184 38.7656 14.4652 38.8349 14.4553C38.8368 14.5263 38.8176 14.5795 38.7329 14.5776Z" fill="#FBFBFB"/>
<path d="M34.5105 14.8379C34.5437 14.828 34.5535 14.8398 34.5457 14.8714C34.534 14.8595 34.5222 14.8477 34.5105 14.8379Z" fill="#FBFBFB"/>
</g>
<defs>
<clipPath id="clip0_198_1609">
<rect width="123" height="23" fill="white"/>
</clipPath>
</defs>
</svg>
