<svg width="309" height="309" viewBox="0 0 309 309" fill="none" xmlns="http://www.w3.org/2000/svg">
<g filter="url(#filter0_d_196_1702)">
<g clip-path="url(#clip0_196_1702)">
<rect width="300" height="300" rx="150" fill="#212121"/>
<path d="M149.905 150L208.81 300H91L149.905 150Z" fill="#202020"/>
<path d="M149.933 150.067L297.651 214.481L214.347 297.785L149.933 150.067Z" fill="#F20BE9"/>
<path d="M150.067 150.067L214.481 2.34917L297.785 85.6532L150.067 150.067Z" fill="#F20BE9"/>
<path d="M150.067 149.933L2.34917 85.5188L85.6532 2.21475L150.067 149.933Z" fill="#F20BE9"/>
<path d="M150 149.905L0 208.81V91L150 149.905Z" fill="#202020"/>
<path d="M149.933 149.933L85.5188 297.651L2.21475 214.347L149.933 149.933Z" fill="#F20BE9"/>
<path d="M150.095 150L91.1903 0H209L150.095 150Z" fill="#202020"/>
<path d="M150 150.095L300 91.1903V209L150 150.095Z" fill="#202020"/>
<path d="M157 92.2434L153.62 91.2834H151.08L150.48 89.8034L142.86 87.2034V82.0234L151.82 78.8034L154.66 77.2634H157V80.8034L153.8 81.8034V87.6234L157 88.4834V92.2434ZM150.72 86.3034V82.9034L146.14 84.4234V84.8434L150.72 86.3034ZM157.2 71.6723C157.2 72.5923 157.047 73.4256 156.74 74.1723C156.433 74.9056 155.92 75.4923 155.2 75.9323C154.48 76.3589 153.507 76.5723 152.28 76.5723C151.04 76.5723 150.067 76.3389 149.36 75.8723C148.64 75.4056 148.127 74.7989 147.82 74.0523C147.513 73.3056 147.36 72.5123 147.36 71.6723C147.36 70.9389 147.387 70.3123 147.44 69.7923C147.493 69.2589 147.54 68.9056 147.58 68.7323L149.34 67.1723L151.52 68.7723L150.16 71.0723C150.16 72.2189 150.867 72.7923 152.28 72.7923C153.013 72.7923 153.553 72.6189 153.9 72.2723C154.233 71.9256 154.4 71.3923 154.4 70.6723C154.4 69.9523 154.3 69.3056 154.1 68.7323C153.9 68.1589 153.713 67.7123 153.54 67.3923H156.42C156.633 67.8056 156.82 68.3523 156.98 69.0323C157.127 69.6989 157.2 70.5789 157.2 71.6723ZM157.2 61.7091C157.2 62.6158 156.933 63.3425 156.4 63.8891C155.867 64.4358 155.193 64.7091 154.38 64.7091H150.02V66.1691H148.12L147.14 64.9091L144.66 63.4891V61.1291H147.56V58.3291H150.16V61.1291H154.44L154.42 58.3291H156.6C156.6 58.3291 156.653 58.4891 156.76 58.8091C156.853 59.1158 156.947 59.5225 157.04 60.0291C157.147 60.5358 157.2 61.0958 157.2 61.7091ZM146.98 54.7363L144.42 57.2763L141.88 54.7363L144.42 52.1963L146.98 54.7363ZM157 56.5363H150.38L148.78 56.9563L147.56 56.5563V52.9363H157V56.5363ZM157.2 46.2765C157.2 47.9032 156.813 49.1632 156.04 50.0565C155.267 50.9498 154.013 51.3965 152.28 51.3965C150.533 51.3965 149.28 50.9498 148.52 50.0565C147.747 49.1632 147.36 47.9032 147.36 46.2765C147.36 44.6098 147.747 43.3498 148.52 42.4965C149.28 41.6298 150.533 41.1965 152.28 41.1965C154.013 41.1965 155.267 41.6298 156.04 42.4965C156.813 43.3498 157.2 44.6098 157.2 46.2765ZM154.6 46.2765C154.6 45.7298 154.4 45.3498 154 45.1365C153.587 44.9232 153.013 44.8165 152.28 44.8165C151.533 44.8165 150.96 44.9232 150.56 45.1365C150.16 45.3498 149.96 45.7298 149.96 46.2765C149.96 46.8365 150.16 47.2298 150.56 47.4565C150.96 47.6698 151.533 47.7765 152.28 47.7765C153.013 47.7765 153.587 47.6698 154 47.4565C154.4 47.2298 154.6 46.8365 154.6 46.2765ZM157 39.5051H150.98L148.78 39.9051L147.56 39.2851V36.3051H148.42L148.54 36.1251C148.407 35.9784 148.253 35.7784 148.08 35.5251C147.893 35.2584 147.727 34.9384 147.58 34.5651C147.433 34.1917 147.36 33.7717 147.36 33.3051C147.36 32.1051 147.7 31.2051 148.38 30.6051C149.06 30.0051 150.013 29.7051 151.24 29.7051H153.78L155.78 29.2851L157 29.7051V33.3051H151.76C151.253 33.3051 150.867 33.4184 150.6 33.6451C150.32 33.8584 150.18 34.1984 150.18 34.6651L150.56 35.9051H157V39.5051Z" fill="#FBFBFB"/>
<path d="M118.257 108.358L110.522 116.094L109.39 117.791L108.245 118.342L105.543 115.641L108.146 107.495L107.863 107.212L100.198 110.295L97.3835 107.481L98.0906 106.491L99.5896 105.275L107.382 97.4825L109.942 100.042L108.697 101.202L104.752 105.148L104.907 105.303L106.83 104.511L110.479 103.408L112.176 105.105L110.394 110.79L110.536 110.932L111.681 109.786L115.542 105.643L118.257 108.358ZM108.401 91.6284L109.688 94.3296L107.015 95.8711L105.601 93.3255C105.195 92.9201 104.795 92.7362 104.399 92.7739C104.003 92.7928 103.569 92.9437 103.098 93.2265L104.554 94.6831L101.273 101.075L99.7035 103.183L97.0165 100.496L100.906 95.0508L100.623 94.768L95.1781 98.6571L92.4911 95.9701C92.4911 95.9701 92.6749 95.8522 93.0426 95.6165C93.3914 95.3808 93.8676 95.0744 94.471 94.6973C95.0649 94.3107 95.7343 93.8959 96.4791 93.4528C97.2051 93.0097 97.9499 92.5665 98.7136 92.1234C99.4678 91.6897 100.18 91.3079 100.849 90.9779C101.886 90.4499 102.838 90.1105 103.706 89.9597C104.564 89.7994 105.37 89.8512 106.124 90.1152C106.888 90.3698 107.647 90.8742 108.401 91.6284ZM95.5807 85.3984C96.2689 86.0866 96.8063 86.7655 97.1929 87.4349C97.5794 88.1042 97.8434 88.6605 97.9848 89.1036L96.0191 91.0694C95.8022 90.5131 95.5382 89.9852 95.2271 89.4855C94.9066 88.9763 94.6002 88.5379 94.3079 88.1702C94.0062 87.812 93.7846 87.5621 93.6432 87.4207C93.4829 87.2604 93.3462 87.1709 93.2331 87.152C93.1105 87.1426 93.0115 87.1756 92.9361 87.251C92.8324 87.3547 92.8324 87.5244 92.9361 87.7601C93.0304 88.0053 93.2566 88.4201 93.6149 89.0046C93.9072 89.4855 94.1665 89.9804 94.3927 90.4896C94.6002 90.9987 94.6897 91.5031 94.6614 92.0028C94.6237 92.493 94.3833 92.9597 93.9402 93.4028C93.3934 93.9497 92.8371 94.2514 92.2714 94.3079C91.7057 94.3645 91.1259 94.2184 90.5319 93.8695C89.9285 93.5301 89.311 93.0446 88.6793 92.4129C88.321 92.0546 88.0052 91.7011 87.7318 91.3522C87.4584 91.0034 87.2651 90.7535 87.152 90.6027L86.6853 88.4389L88.8349 87.5621L90.7723 90.5744C91.074 90.8761 91.3239 90.928 91.5219 90.73C91.7293 90.5226 91.668 90.1501 91.338 89.6127C91.074 89.1979 90.8101 88.7642 90.5461 88.3117C90.2727 87.8685 90.0605 87.4301 89.9097 86.9964C89.7494 86.5533 89.6975 86.1243 89.7541 85.7095C89.8013 85.2852 90.0181 84.8798 90.4047 84.4933C91.1212 83.7768 91.9179 83.4986 92.7947 83.6589C93.6526 83.8192 94.5813 84.399 95.5807 85.3984ZM88.8207 78.6384C89.4618 79.2796 89.7871 79.9819 89.7965 80.7456C89.806 81.5093 89.5231 82.1787 88.948 82.7538L85.865 85.8368L86.8974 86.8692L85.5539 88.2127L83.97 88.0147L81.2123 88.7642L79.5435 87.0954L81.5941 85.0448L79.6142 83.0649L81.4527 81.2265L83.4326 83.2064L86.459 80.1799L84.465 78.2142L86.0064 76.6727C86.0064 76.6727 86.1573 76.7481 86.459 76.899C86.7418 77.0498 87.0954 77.2714 87.5197 77.5636C87.9533 77.8465 88.387 78.2048 88.8207 78.6384ZM81.9103 71.728C82.6363 72.454 83.1737 73.2082 83.5225 73.9908C83.8714 74.7733 83.9515 75.5794 83.7629 76.4091C83.5744 77.2387 83.0464 78.0873 82.179 78.9547C81.5568 79.5769 80.9204 80.0059 80.2698 80.2416C79.6099 80.4679 78.964 80.5386 78.3324 80.4537C77.6912 80.3783 77.0878 80.1803 76.5222 79.8597C75.947 79.5486 75.4238 79.1574 74.9524 78.686C74.1416 77.8751 73.5994 77.1727 73.326 76.5788C73.0432 75.9754 72.8782 75.5558 72.8311 75.3201L74.3726 72.3644L75.5322 71.7704L79.9163 76.1545C80.1991 75.7397 80.317 75.273 80.2698 74.7544C80.2227 74.2359 79.8738 73.6514 79.2233 73.0008C78.7142 72.4917 78.2192 72.1099 77.7384 71.8553C77.2575 71.6007 76.871 71.4122 76.5787 71.2896L78.4738 69.3946C78.9075 69.5266 79.4496 69.8047 80.1001 70.229C80.7318 70.6532 81.3352 71.1529 81.9103 71.728ZM78.997 77.0455L76.7626 75.3767L76.2817 76.1121C76.31 76.2158 76.3807 76.3431 76.4939 76.4939C76.5976 76.6353 76.6966 76.7532 76.7909 76.8475C77.0548 77.1115 77.333 77.2765 77.6252 77.3424C77.9081 77.399 78.1768 77.3943 78.4313 77.3283C78.667 77.2623 78.8556 77.168 78.997 77.0455ZM74.5847 79.1102L74.6837 82.9145L73.821 83.7771L72.0815 82.0376L73.8634 78.389L74.5847 79.1102ZM77.1215 67.2221L72.6951 71.6486L71.5778 73.3598L70.4323 73.9113L68.509 71.988L68.5514 71.3799C68.5514 71.3799 68.4477 71.3516 68.2403 71.295C68.0234 71.2479 67.7594 71.1442 67.4483 70.9839C67.1278 70.8142 66.8072 70.5691 66.4867 70.2485C66.2981 70.0599 66.1237 69.8572 65.9634 69.6404C65.8031 69.4236 65.6947 69.2397 65.6381 69.0889L65.4967 67.3918L68.2261 66.5008L69.3151 69.1454L69.8808 69.4283L74.6042 64.7048L77.1215 67.2221ZM67.8649 57.6826C68.5908 58.4085 69.1282 59.1628 69.4771 59.9453C69.8259 60.7278 69.906 61.5339 69.7175 62.3636C69.5289 63.1933 69.0009 64.0418 68.1336 64.9092C67.5113 65.5314 66.8749 65.9604 66.2244 66.1961C65.5644 66.4224 64.9186 66.4931 64.2869 66.4083C63.6458 66.3328 63.0424 66.1348 62.4767 65.8143C61.9016 65.5032 61.3783 65.1119 60.9069 64.6405C60.0961 63.8297 59.554 63.1273 59.2806 62.5333C58.9977 61.9299 58.8327 61.5104 58.7856 61.2747L60.3271 58.319L61.4867 57.725L65.8708 62.109C66.1537 61.6942 66.2715 61.2275 66.2244 60.709C66.1772 60.1904 65.8284 59.6059 65.1778 58.9554C64.6687 58.4462 64.1738 58.0644 63.6929 57.8098C63.2121 57.5553 62.8255 57.3667 62.5333 57.2442L64.4283 55.3491C64.862 55.4811 65.4041 55.7592 66.0547 56.1835C66.6863 56.6078 67.2897 57.1074 67.8649 57.6826ZM64.9516 63L62.7171 61.3312L62.2363 62.0666C62.2646 62.1703 62.3353 62.2976 62.4484 62.4485C62.5521 62.5899 62.6511 62.7077 62.7454 62.802C63.0094 63.066 63.2875 63.231 63.5798 63.297C63.8626 63.3536 64.1313 63.3488 64.3859 63.2828C64.6216 63.2169 64.8101 63.1226 64.9516 63Z" fill="#FBFBFB"/>
<path d="M81.2437 143V153.94L81.6437 155.94L81.2437 157.16H75.2837C74.3237 157.16 73.4037 157.067 72.5237 156.88C71.6304 156.707 70.8371 156.373 70.1437 155.88C69.4371 155.387 68.8837 154.68 68.4837 153.76C68.0704 152.84 67.8637 151.647 67.8637 150.18C67.8637 148.713 68.0704 147.507 68.4837 146.56C68.8971 145.627 69.4571 144.9 70.1637 144.38C70.8704 143.86 71.6704 143.5 72.5638 143.3C73.4437 143.1 74.3504 143 75.2837 143H81.2437ZM77.6037 146.2H75.2837C74.1104 146.2 73.2104 146.507 72.5837 147.12C71.9571 147.747 71.6437 148.767 71.6437 150.18C71.6437 151.593 71.9637 152.573 72.6037 153.12C73.2304 153.68 74.1237 153.96 75.2837 153.96H77.6037V146.2ZM63.2625 142.8C64.0625 142.8 64.6825 142.953 65.1225 143.26C65.5492 143.567 65.8492 144.007 66.0225 144.58C66.1825 145.167 66.2625 145.867 66.2625 146.68V152.46H62.6625V147.2C62.6625 146.707 62.5692 146.32 62.3825 146.04C62.1825 145.76 61.8892 145.62 61.5025 145.62C61.1425 145.62 60.8158 145.773 60.5225 146.08C60.2158 146.387 60.0625 146.833 60.0625 147.42V152.46H56.4625V146.22L56.0425 144.22L56.4625 143H59.8425V143.98L60.0425 144.08C60.2158 143.907 60.4692 143.72 60.8025 143.52C61.1225 143.32 61.4958 143.147 61.9225 143C62.3358 142.867 62.7825 142.8 63.2625 142.8ZM49.5242 142.8C50.5509 142.8 51.4642 142.953 52.2642 143.26C53.0642 143.567 53.6909 144.08 54.1442 144.8C54.5976 145.52 54.8242 146.493 54.8242 147.72C54.8242 148.6 54.6776 149.353 54.3842 149.98C54.0776 150.607 53.6709 151.113 53.1642 151.5C52.6576 151.9 52.0909 152.187 51.4642 152.36C50.8376 152.547 50.1909 152.64 49.5242 152.64C48.3776 152.64 47.4976 152.527 46.8842 152.3C46.2576 152.073 45.8442 151.893 45.6442 151.76L44.6442 148.58L45.0442 147.34H51.2442C51.1509 146.847 50.9042 146.433 50.5042 146.1C50.1042 145.767 49.4442 145.6 48.5242 145.6C47.8042 145.6 47.1842 145.68 46.6642 145.84C46.1442 146 45.7376 146.14 45.4442 146.26V143.58C45.8442 143.367 46.4242 143.18 47.1842 143.02C47.9309 142.873 48.7109 142.8 49.5242 142.8ZM51.2242 148.62L48.4642 149.02L48.6442 149.88C48.7376 149.933 48.8776 149.973 49.0642 150C49.2376 150.027 49.3909 150.04 49.5242 150.04C49.8976 150.04 50.2109 149.96 50.4642 149.8C50.7042 149.64 50.8909 149.447 51.0242 149.22C51.1442 149.007 51.2109 148.807 51.2242 148.62ZM42.9519 143L42.9719 153.96L43.3719 155.96L42.9519 157.16H39.3519V143H42.9519Z" fill="#FBFBFB"/>
<path d="M99.4624 190.638L109.772 195.857L111.596 196.832L112.445 197.681L109.758 200.368L100.325 194.923L100.042 195.206L105.515 204.611L102.856 207.269L102.008 206.421L101.032 204.596L95.7995 194.301L99.4624 190.638ZM89.164 200.654C89.89 199.928 90.6442 199.39 91.4267 199.042C92.2093 198.693 93.0154 198.613 93.8451 198.801C94.6747 198.99 95.5233 199.518 96.3906 200.385C97.0129 201.007 97.4419 201.644 97.6776 202.294C97.9038 202.954 97.9746 203.6 97.8897 204.232C97.8143 204.873 97.6163 205.476 97.2957 206.042C96.9846 206.617 96.5933 207.14 96.1219 207.612C95.3111 208.422 94.6087 208.965 94.0148 209.238C93.4114 209.521 92.9918 209.686 92.7561 209.733L89.8004 208.191L89.2064 207.032L93.5905 202.648C93.1757 202.365 92.709 202.247 92.1904 202.294C91.6719 202.341 91.0873 202.69 90.4368 203.341C89.9277 203.85 89.5458 204.345 89.2913 204.826C89.0367 205.306 88.8482 205.693 88.7256 205.985L86.8306 204.09C86.9625 203.657 87.2407 203.114 87.6649 202.464C88.0892 201.832 88.5889 201.229 89.164 200.654ZM94.4814 203.567L92.8127 205.801L93.5481 206.282C93.6518 206.254 93.7791 206.183 93.9299 206.07C94.0713 205.966 94.1892 205.867 94.2835 205.773C94.5474 205.509 94.7124 205.231 94.7784 204.939C94.835 204.656 94.8303 204.387 94.7643 204.133C94.6983 203.897 94.604 203.708 94.4814 203.567ZM97.5503 207.173L99.3322 210.822L97.6069 212.547L96.7442 211.685L96.8432 207.88L97.5503 207.173ZM84.6581 205.442L89.0846 209.869L90.7958 210.986L91.3473 212.132L89.424 214.055L88.8159 214.013C88.8159 214.013 88.7876 214.116 88.731 214.324C88.6839 214.541 88.5802 214.805 88.4199 215.116C88.2502 215.436 88.005 215.757 87.6845 216.077C87.4959 216.266 87.2932 216.44 87.0764 216.601C86.8595 216.761 86.6757 216.869 86.5248 216.926L84.8278 217.067L83.9368 214.338L86.5814 213.249L86.8643 212.683L82.1408 207.96L84.6581 205.442ZM83.8969 220.374L87.5032 220.388L87.5032 223.98L83.9111 223.98L83.8969 220.374ZM78.0845 212.016L82.7656 216.697L84.1939 217.531L84.7738 218.677L82.214 221.237L75.5389 214.562L78.0845 212.016ZM71.3671 218.451C72.0082 217.809 72.7106 217.484 73.4743 217.475C74.238 217.465 74.9074 217.748 75.4825 218.323L78.5655 221.406L79.5978 220.374L80.9413 221.717L80.7434 223.301L81.4929 226.059L79.8241 227.728L77.7735 225.677L75.7936 227.657L73.9551 225.819L75.935 223.839L72.9086 220.812L70.9429 222.806L69.4014 221.265C69.4014 221.265 69.4768 221.114 69.6276 220.812C69.7785 220.529 70 220.176 70.2923 219.752C70.5752 219.318 70.9334 218.884 71.3671 218.451ZM64.4567 225.361C65.1827 224.635 65.9369 224.098 66.7194 223.749C67.502 223.4 68.3081 223.32 69.1377 223.508C69.9674 223.697 70.8159 224.225 71.6833 225.092C72.3056 225.715 72.7346 226.351 72.9703 227.001C73.1965 227.661 73.2672 228.307 73.1824 228.939C73.107 229.58 72.909 230.183 72.5884 230.749C72.2773 231.324 71.886 231.848 71.4146 232.319C70.6038 233.13 69.9014 233.672 69.3075 233.945C68.7041 234.228 68.2845 234.393 68.0488 234.44L65.0931 232.899L64.4991 231.739L68.8832 227.355C68.4684 227.072 68.0017 226.954 67.4831 227.001C66.9646 227.049 66.38 227.397 65.7295 228.048C65.2204 228.557 64.8385 229.052 64.584 229.533C64.3294 230.014 64.1409 230.4 64.0183 230.693L62.1232 228.798C62.2552 228.364 62.5334 227.822 62.9576 227.171C63.3819 226.54 63.8816 225.936 64.4567 225.361ZM69.7741 228.274L68.1054 230.509L68.8408 230.99C68.9445 230.961 69.0717 230.891 69.2226 230.777C69.364 230.674 69.4819 230.575 69.5762 230.48C69.8401 230.216 70.0051 229.938 70.0711 229.646C70.1277 229.363 70.123 229.095 70.057 228.84C69.991 228.604 69.8967 228.416 69.7741 228.274ZM72.843 231.881L74.6249 235.529L72.8996 237.255L72.0369 236.392L72.1359 232.588L72.843 231.881Z" fill="#FBFBFB"/>
<path d="M143 207.757L146.38 208.717H148.92L149.52 210.197L157.14 212.797V217.977L148.18 221.197L145.34 222.737H143V219.197L146.2 218.197V212.377L143 211.517V207.757ZM149.28 213.697V217.097L153.86 215.577V215.157L149.28 213.697ZM142.8 228.328C142.8 227.408 142.953 226.574 143.26 225.828C143.567 225.094 144.08 224.508 144.8 224.068C145.52 223.641 146.493 223.428 147.72 223.428C148.96 223.428 149.933 223.661 150.64 224.128C151.36 224.594 151.873 225.201 152.18 225.948C152.487 226.694 152.64 227.488 152.64 228.328C152.64 229.061 152.613 229.688 152.56 230.208C152.507 230.741 152.46 231.094 152.42 231.268L150.66 232.828L148.48 231.228L149.84 228.928C149.84 227.781 149.133 227.208 147.72 227.208C146.987 227.208 146.447 227.381 146.1 227.728C145.767 228.074 145.6 228.608 145.6 229.328C145.6 230.048 145.7 230.694 145.9 231.268C146.1 231.841 146.287 232.288 146.46 232.608H143.58C143.367 232.194 143.18 231.648 143.02 230.968C142.873 230.301 142.8 229.421 142.8 228.328ZM142.8 238.291C142.8 237.384 143.067 236.658 143.6 236.111C144.133 235.564 144.807 235.291 145.62 235.291H149.98V233.831H151.88L152.86 235.091L155.34 236.511V238.871H152.44V241.671H149.84V238.871H145.56L145.58 241.671H143.4C143.4 241.671 143.347 241.511 143.24 241.191C143.147 240.884 143.053 240.478 142.96 239.971C142.853 239.464 142.8 238.904 142.8 238.291ZM153.02 245.264L155.58 242.724L158.12 245.264L155.58 247.804L153.02 245.264ZM143 243.464H149.62L151.22 243.044L152.44 243.444V247.064H143V243.464ZM142.8 253.724C142.8 252.097 143.187 250.837 143.96 249.944C144.733 249.05 145.987 248.604 147.72 248.604C149.467 248.604 150.72 249.05 151.48 249.944C152.253 250.837 152.64 252.097 152.64 253.724C152.64 255.39 152.253 256.65 151.48 257.504C150.72 258.37 149.467 258.804 147.72 258.804C145.987 258.804 144.733 258.37 143.96 257.504C143.187 256.65 142.8 255.39 142.8 253.724ZM145.4 253.724C145.4 254.27 145.6 254.65 146 254.864C146.413 255.077 146.987 255.184 147.72 255.184C148.467 255.184 149.04 255.077 149.44 254.864C149.84 254.65 150.04 254.27 150.04 253.724C150.04 253.164 149.84 252.77 149.44 252.544C149.04 252.33 148.467 252.224 147.72 252.224C146.987 252.224 146.413 252.33 146 252.544C145.6 252.77 145.4 253.164 145.4 253.724ZM143 260.495H149.02L151.22 260.095L152.44 260.715V263.695H151.58L151.46 263.875C151.593 264.022 151.747 264.222 151.92 264.475C152.107 264.742 152.273 265.062 152.42 265.435C152.567 265.808 152.64 266.228 152.64 266.695C152.64 267.895 152.3 268.795 151.62 269.395C150.94 269.995 149.987 270.295 148.76 270.295H146.22L144.22 270.715L143 270.295V266.695H148.24C148.747 266.695 149.133 266.582 149.4 266.355C149.68 266.142 149.82 265.802 149.82 265.335L149.44 264.095H143V260.495Z" fill="#FBFBFB"/>
<path d="M181.743 191.642L189.478 183.906L190.61 182.209L191.755 181.658L194.457 184.359L191.854 192.505L192.137 192.788L199.802 189.705L202.617 192.519L201.909 193.509L200.41 194.725L192.618 202.517L190.058 199.958L191.303 198.798L195.248 194.852L195.093 194.697L193.17 195.489L189.521 196.592L187.824 194.895L189.606 189.21L189.464 189.068L188.319 190.214L184.458 194.357L181.743 191.642ZM191.599 208.372L190.312 205.67L192.985 204.129L194.399 206.675C194.805 207.08 195.205 207.264 195.601 207.226C195.997 207.207 196.431 207.056 196.902 206.774L195.446 205.317L198.727 198.925L200.296 196.817L202.983 199.504L199.094 204.949L199.377 205.232L204.822 201.343L207.509 204.03C207.509 204.03 207.325 204.148 206.957 204.383C206.609 204.619 206.132 204.926 205.529 205.303C204.935 205.689 204.266 206.104 203.521 206.547C202.795 206.99 202.05 207.433 201.286 207.877C200.532 208.31 199.82 208.692 199.151 209.022C198.114 209.55 197.162 209.889 196.294 210.04C195.436 210.201 194.63 210.149 193.876 209.885C193.112 209.63 192.353 209.126 191.599 208.372ZM204.419 214.602C203.731 213.913 203.194 213.235 202.807 212.565C202.421 211.896 202.157 211.339 202.015 210.896L203.981 208.931C204.198 209.487 204.462 210.015 204.773 210.515C205.093 211.024 205.4 211.462 205.692 211.83C205.994 212.188 206.215 212.438 206.357 212.579C206.517 212.74 206.654 212.829 206.767 212.848C206.889 212.857 206.988 212.824 207.064 212.749C207.168 212.645 207.168 212.476 207.064 212.24C206.97 211.995 206.743 211.58 206.385 210.995C206.093 210.515 205.834 210.02 205.607 209.51C205.4 209.001 205.31 208.497 205.339 207.997C205.376 207.507 205.617 207.04 206.06 206.597C206.607 206.05 207.163 205.749 207.729 205.692C208.294 205.636 208.874 205.782 209.468 206.13C210.071 206.47 210.689 206.955 211.321 207.587C211.679 207.945 211.995 208.299 212.268 208.648C212.542 208.997 212.735 209.246 212.848 209.397L213.315 211.561L211.165 212.438L209.228 209.426C208.926 209.124 208.676 209.072 208.478 209.27C208.271 209.477 208.332 209.85 208.662 210.387C208.926 210.802 209.19 211.236 209.454 211.688C209.727 212.131 209.939 212.57 210.09 213.004C210.251 213.447 210.302 213.876 210.246 214.29C210.199 214.715 209.982 215.12 209.595 215.507C208.879 216.223 208.082 216.501 207.205 216.341C206.347 216.181 205.419 215.601 204.419 214.602ZM211.179 221.362C210.538 220.72 210.213 220.018 210.203 219.254C210.194 218.491 210.477 217.821 211.052 217.246L214.135 214.163L213.103 213.131L214.446 211.787L216.03 211.985L218.788 211.236L220.457 212.905L218.406 214.955L220.386 216.935L218.547 218.774L216.567 216.794L213.541 219.82L215.535 221.786L213.994 223.327C213.994 223.327 213.843 223.252 213.541 223.101C213.258 222.95 212.905 222.729 212.48 222.436C212.047 222.154 211.613 221.795 211.179 221.362ZM218.09 228.272C217.364 227.546 216.826 226.792 216.477 226.009C216.129 225.227 216.049 224.421 216.237 223.591C216.426 222.761 216.954 221.913 217.821 221.045C218.443 220.423 219.08 219.994 219.73 219.758C220.39 219.532 221.036 219.461 221.668 219.546C222.309 219.622 222.912 219.82 223.478 220.14C224.053 220.451 224.576 220.843 225.048 221.314C225.858 222.125 226.401 222.827 226.674 223.421C226.957 224.025 227.122 224.444 227.169 224.68L225.627 227.636L224.468 228.23L220.084 223.845C219.801 224.26 219.683 224.727 219.73 225.246C219.777 225.764 220.126 226.349 220.777 226.999C221.286 227.508 221.781 227.89 222.262 228.145C222.742 228.399 223.129 228.588 223.421 228.71L221.526 230.605C221.093 230.473 220.55 230.195 219.9 229.771C219.268 229.347 218.665 228.847 218.09 228.272ZM221.003 222.955L223.237 224.623L223.718 223.888C223.69 223.784 223.619 223.657 223.506 223.506C223.402 223.365 223.303 223.247 223.209 223.153C222.945 222.889 222.667 222.724 222.375 222.658C222.092 222.601 221.823 222.606 221.569 222.672C221.333 222.738 221.144 222.832 221.003 222.955ZM225.415 220.89L225.316 217.086L226.179 216.223L227.918 217.962L226.137 221.611L225.415 220.89ZM222.878 232.778L227.305 228.351L228.422 226.64L229.568 226.089L231.491 228.012L231.449 228.62C231.449 228.62 231.552 228.648 231.76 228.705C231.977 228.752 232.241 228.856 232.552 229.016C232.872 229.186 233.193 229.431 233.513 229.751C233.702 229.94 233.876 230.143 234.037 230.36C234.197 230.576 234.305 230.76 234.362 230.911L234.503 232.608L231.774 233.499L230.685 230.855L230.119 230.572L225.396 235.295L222.878 232.778ZM232.135 242.317C231.409 241.591 230.872 240.837 230.523 240.055C230.174 239.272 230.094 238.466 230.283 237.636C230.471 236.807 230.999 235.958 231.866 235.091C232.489 234.469 233.125 234.04 233.776 233.804C234.436 233.578 235.081 233.507 235.713 233.592C236.354 233.667 236.958 233.865 237.523 234.186C238.098 234.497 238.622 234.888 239.093 235.36C239.904 236.17 240.446 236.873 240.719 237.467C241.002 238.07 241.167 238.49 241.214 238.725L239.673 241.681L238.513 242.275L234.129 237.891C233.846 238.306 233.728 238.772 233.776 239.291C233.823 239.81 234.172 240.394 234.822 241.045C235.331 241.554 235.826 241.936 236.307 242.19C236.788 242.445 237.174 242.633 237.467 242.756L235.572 244.651C235.138 244.519 234.596 244.241 233.945 243.817C233.314 243.392 232.71 242.893 232.135 242.317ZM235.048 237L237.283 238.669L237.764 237.933C237.735 237.83 237.665 237.702 237.552 237.552C237.448 237.41 237.349 237.292 237.255 237.198C236.991 236.934 236.712 236.769 236.42 236.703C236.137 236.646 235.869 236.651 235.614 236.717C235.378 236.783 235.19 236.877 235.048 237Z" fill="#FBFBFB"/>
<path d="M218.756 157V146.06L218.356 144.06L218.756 142.84H224.716C225.676 142.84 226.596 142.933 227.476 143.12C228.37 143.293 229.163 143.627 229.856 144.12C230.563 144.613 231.116 145.32 231.516 146.24C231.93 147.16 232.136 148.353 232.136 149.82C232.136 151.287 231.93 152.493 231.516 153.44C231.103 154.373 230.543 155.1 229.836 155.62C229.13 156.14 228.33 156.5 227.436 156.7C226.556 156.9 225.65 157 224.716 157H218.756ZM222.396 153.8H224.716C225.89 153.8 226.79 153.493 227.416 152.88C228.043 152.253 228.356 151.233 228.356 149.82C228.356 148.407 228.036 147.427 227.396 146.88C226.77 146.32 225.876 146.04 224.716 146.04H222.396V153.8ZM236.738 157.2C235.938 157.2 235.318 157.047 234.878 156.74C234.451 156.433 234.151 155.993 233.978 155.42C233.818 154.833 233.738 154.133 233.738 153.32V147.54H237.338V152.8C237.338 153.293 237.431 153.68 237.618 153.96C237.818 154.24 238.111 154.38 238.498 154.38C238.858 154.38 239.184 154.227 239.478 153.92C239.784 153.613 239.938 153.167 239.938 152.58V147.54H243.538V153.78L243.957 155.78L243.538 157H240.158V156.02L239.958 155.92C239.784 156.093 239.531 156.28 239.198 156.48C238.878 156.68 238.504 156.853 238.077 157C237.664 157.133 237.218 157.2 236.738 157.2ZM250.476 157.2C249.449 157.2 248.536 157.047 247.736 156.74C246.936 156.433 246.309 155.92 245.856 155.2C245.402 154.48 245.176 153.507 245.176 152.28C245.176 151.4 245.322 150.647 245.616 150.02C245.922 149.393 246.329 148.887 246.836 148.5C247.342 148.1 247.909 147.813 248.536 147.64C249.162 147.453 249.809 147.36 250.476 147.36C251.622 147.36 252.502 147.473 253.116 147.7C253.742 147.927 254.156 148.107 254.356 148.24L255.356 151.42L254.956 152.66H248.756C248.849 153.153 249.096 153.567 249.496 153.9C249.896 154.233 250.556 154.4 251.476 154.4C252.196 154.4 252.816 154.32 253.336 154.16C253.856 154 254.262 153.86 254.556 153.74V156.42C254.156 156.633 253.576 156.82 252.816 156.98C252.069 157.127 251.289 157.2 250.476 157.2ZM248.776 151.38L251.536 150.98L251.356 150.12C251.262 150.067 251.122 150.027 250.936 150C250.762 149.973 250.609 149.96 250.476 149.96C250.102 149.96 249.789 150.04 249.536 150.2C249.296 150.36 249.109 150.553 248.976 150.78C248.856 150.993 248.789 151.193 248.776 151.38ZM257.048 157L257.028 146.04L256.628 144.04L257.048 142.84H260.648V157H257.048Z" fill="#FBFBFB"/>
<path d="M200.538 109.362L190.228 104.143L188.404 103.168L187.555 102.319L190.242 99.632L199.675 105.077L199.958 104.794L194.485 95.3894L197.144 92.7306L197.992 93.5792L198.968 95.4035L204.2 105.699L200.538 109.362ZM210.836 99.3463C210.11 100.072 209.356 100.61 208.573 100.958C207.791 101.307 206.985 101.387 206.155 101.199C205.325 101.01 204.477 100.482 203.609 99.615C202.987 98.9927 202.558 98.3563 202.322 97.7058C202.096 97.0458 202.025 96.4 202.11 95.7683C202.186 95.1272 202.384 94.5238 202.704 93.9581C203.015 93.383 203.407 92.8598 203.878 92.3884C204.689 91.5775 205.391 91.0354 205.985 90.762C206.589 90.4792 207.008 90.3142 207.244 90.267L210.2 91.8085L210.794 92.9682L206.41 97.3523C206.824 97.6351 207.291 97.7529 207.81 97.7058C208.328 97.6587 208.913 97.3098 209.563 96.6593C210.072 96.1502 210.454 95.6552 210.709 95.1744C210.963 94.6935 211.152 94.307 211.274 94.0147L213.169 95.9098C213.037 96.3434 212.759 96.8856 212.335 97.5361C211.911 98.1678 211.411 98.7712 210.836 99.3463ZM205.519 96.433L207.187 94.1986L206.452 93.7177C206.348 93.746 206.221 93.8167 206.07 93.9299C205.929 94.0336 205.811 94.1326 205.717 94.2268C205.453 94.4908 205.288 94.769 205.222 95.0612C205.165 95.3441 205.17 95.6128 205.236 95.8673C205.302 96.103 205.396 96.2916 205.519 96.433ZM202.45 92.8268L200.668 89.1781L202.393 87.4528L203.256 88.3154L203.157 92.1197L202.45 92.8268ZM215.342 94.5575L210.915 90.131L209.204 89.0138L208.653 87.8683L210.576 85.945L211.184 85.9874C211.184 85.9874 211.212 85.8837 211.269 85.6763C211.316 85.4594 211.42 85.1954 211.58 84.8843C211.75 84.5637 211.995 84.2432 212.316 83.9226C212.504 83.7341 212.707 83.5597 212.924 83.3994C213.14 83.2391 213.324 83.1307 213.475 83.0741L215.172 82.9327L216.063 85.6621L213.419 86.7511L213.136 87.3168L217.859 92.0402L215.342 94.5575ZM216.103 79.626L212.497 79.6118L212.497 76.0197L216.089 76.0197L216.103 79.626ZM221.915 87.984L217.234 83.3029L215.806 82.4685L215.226 81.323L217.786 78.7633L224.461 85.4384L221.915 87.984ZM228.633 81.5494C227.992 82.1905 227.289 82.5158 226.526 82.5252C225.762 82.5346 225.093 82.2518 224.518 81.6767L221.435 78.5937L220.402 79.6261L219.059 78.2826L219.257 76.6987L218.507 73.9409L220.176 72.2722L222.226 74.3228L224.206 72.3429L226.045 74.1814L224.065 76.1613L227.091 79.1877L229.057 77.1936L230.599 78.7351C230.599 78.7351 230.523 78.886 230.372 79.1877C230.222 79.4705 230 79.8241 229.708 80.2483C229.425 80.682 229.067 81.1157 228.633 81.5494ZM235.543 74.639C234.817 75.365 234.063 75.9024 233.281 76.2512C232.498 76.6 231.692 76.6802 230.862 76.4916C230.033 76.303 229.184 75.7751 228.317 74.9077C227.694 74.2854 227.265 73.649 227.03 72.9985C226.803 72.3385 226.733 71.6927 226.818 71.061C226.893 70.4199 227.091 69.8165 227.412 69.2508C227.723 68.6757 228.114 68.1525 228.585 67.6811C229.396 66.8702 230.099 66.3281 230.693 66.0547C231.296 65.7719 231.715 65.6069 231.951 65.5597L234.907 67.1012L235.501 68.2609L231.117 72.6449C231.532 72.9278 231.998 73.0456 232.517 72.9985C233.035 72.9514 233.62 72.6025 234.271 71.952C234.78 71.4429 235.161 70.9479 235.416 70.4671C235.671 69.9862 235.859 69.5997 235.982 69.3074L237.877 71.2025C237.745 71.6361 237.467 72.1783 237.042 72.8288C236.618 73.4605 236.118 74.0639 235.543 74.639ZM230.226 71.7257L231.895 69.4913L231.159 69.0104C231.056 69.0387 230.928 69.1094 230.777 69.2226C230.636 69.3263 230.518 69.4253 230.424 69.5195C230.16 69.7835 229.995 70.0617 229.929 70.3539C229.872 70.6368 229.877 70.9055 229.943 71.16C230.009 71.3957 230.103 71.5843 230.226 71.7257ZM227.157 68.1195L225.375 64.4708L227.1 62.7455L227.963 63.6081L227.864 67.4124L227.157 68.1195Z" fill="#FBFBFB"/>
<circle cx="149.5" cy="150.5" r="12.5" fill="#212121"/>
</g>
</g>
<defs>
<filter id="filter0_d_196_1702" x="0" y="0" width="309" height="309" filterUnits="userSpaceOnUse" color-interpolation-filters="sRGB">
<feFlood flood-opacity="0" result="BackgroundImageFix"/>
<feColorMatrix in="SourceAlpha" type="matrix" values="0 0 0 0 0 0 0 0 0 0 0 0 0 0 0 0 0 0 127 0" result="hardAlpha"/>
<feOffset dx="5" dy="5"/>
<feGaussianBlur stdDeviation="2"/>
<feComposite in2="hardAlpha" operator="out"/>
<feColorMatrix type="matrix" values="0 0 0 0 1 0 0 0 0 1 0 0 0 0 1 0 0 0 0.25 0"/>
<feBlend mode="normal" in2="BackgroundImageFix" result="effect1_dropShadow_196_1702"/>
<feBlend mode="normal" in="SourceGraphic" in2="effect1_dropShadow_196_1702" result="shape"/>
</filter>
<clipPath id="clip0_196_1702">
<rect width="300" height="300" rx="150" fill="white"/>
</clipPath>
</defs>
</svg>
